<svg version="1.1" id="Layer_1" xmlns="http://www.w3.org/2000/svg" xmlns:xlink="http://www.w3.org/1999/xlink" x="0px" y="0px"
	 width="100%" viewBox="0 0 1024 592" enable-background="new 0 0 1024 592" xml:space="preserve">
<path fill="#000000" opacity="1.000000" stroke="none" 
	d="
M655.360352,370.612701 
	C646.361389,359.121063 638.448059,347.223541 629.077576,336.531525 
	C626.542969,338.049011 626.805969,340.065552 626.758545,341.784332 
	C626.519958,350.433197 626.264038,359.087372 626.342651,367.736664 
	C626.378906,371.728424 625.199097,373.487793 620.936035,373.351624 
	C613.112305,373.101685 605.274109,373.200623 597.444031,373.308136 
	C594.109070,373.353912 592.725464,372.151245 592.633362,368.653351 
	C592.085876,347.856537 591.667847,327.048523 590.602661,306.275269 
	C589.469482,284.175964 587.776611,262.102356 586.050720,240.039200 
	C585.743225,236.107590 586.942993,234.956161 590.565430,234.978210 
	C604.728394,235.064468 618.892883,235.125748 633.054932,234.996246 
	C636.838074,234.961639 638.840637,236.580063 640.112488,239.954727 
	C644.288940,251.036758 649.432495,261.663727 655.523254,271.827332 
	C656.875122,274.083191 658.044312,276.490662 660.426025,277.747528 
	C662.757812,276.808014 663.380737,274.769379 664.348389,273.083191 
	C670.649048,262.103210 676.620117,250.943878 681.546204,239.272705 
	C682.851379,236.180496 684.789917,235.042679 688.026978,235.064362 
	C700.690186,235.149246 713.354736,235.129471 726.018066,235.047379 
	C729.789368,235.022934 731.289795,236.287735 731.031311,240.391388 
	C729.869324,258.835632 729.007812,277.298798 728.040894,295.755341 
	C726.786133,319.705566 725.964417,343.670166 725.950439,367.654480 
	C725.947937,371.963531 724.279358,373.500122 719.964966,373.332336 
	C712.644165,373.047668 705.297852,373.057892 697.975342,373.316345 
	C693.555603,373.472290 691.602600,372.137115 691.707581,367.411957 
	C691.903503,358.597382 691.624878,349.772369 691.550171,340.951599 
	C691.536072,339.290222 691.681396,337.578735 689.015259,336.092651 
	C679.686768,349.351807 670.303223,362.689209 661.034546,375.863373 
	C657.840515,375.059204 657.179199,372.501617 655.360352,370.612701 
z"/>
<path fill="#000000" opacity="1.000000" stroke="none" 
	d="
M353.831116,272.005737 
	C353.156219,262.087341 352.604706,252.630447 351.802338,243.194870 
	C351.205963,236.182068 351.728119,235.442734 358.542053,234.701660 
	C375.288818,232.880310 392.069366,231.632324 408.853943,233.761978 
	C431.507263,236.636246 451.389130,244.865448 464.344635,264.943726 
	C470.693329,274.782837 473.758911,285.851715 474.179871,297.542572 
	C474.581482,308.695709 474.756744,319.837219 470.903595,330.623016 
	C462.292755,354.726624 444.448364,367.971008 420.208832,373.132599 
	C401.790344,377.054596 383.116608,375.600708 364.505096,374.146790 
	C359.633392,373.766205 357.930725,371.767365 357.783478,366.679565 
	C356.960663,338.255035 355.736847,309.841949 354.609528,281.426575 
	C354.490967,278.437805 354.107391,275.459534 353.831116,272.005737 
M435.736816,307.943268 
	C433.252411,299.594971 425.247009,293.542053 416.547607,293.159607 
	C412.967957,293.002289 411.380829,294.286346 411.298096,297.952057 
	C410.953522,313.214630 410.502106,328.475067 410.013245,343.733856 
	C409.901398,347.225098 411.564636,348.323822 414.641968,347.437958 
	C423.488953,344.891235 430.831055,340.304169 434.218750,331.266113 
	C436.946411,323.988892 437.739471,316.437531 435.736816,307.943268 
M401.776581,352.793976 
	C404.812134,349.320679 410.387756,346.537964 404.976959,340.769257 
	C404.621063,340.389862 404.868439,339.473663 404.773224,338.816132 
	C404.091431,334.106018 399.876282,331.583221 395.733246,333.811646 
	C392.397797,335.605652 389.087189,337.578979 386.393036,340.393738 
	C383.415405,343.504578 384.328125,347.921509 388.453247,349.097107 
	C391.324677,349.915405 393.782135,350.731537 391.862885,355.654755 
	C395.471588,353.088440 398.192352,351.991364 401.776581,352.793976 
M399.193329,301.345825 
	C393.535522,301.445221 387.496918,299.741150 382.217346,304.326538 
	C388.686676,308.817505 393.894409,309.926636 398.536255,308.122894 
	C402.861633,306.442108 403.042297,305.550507 399.193329,301.345825 
z"/>
<path fill="#000000" opacity="1.000000" stroke="none" 
	d="
M802.387695,233.937912 
	C814.175171,233.410385 825.478577,233.458847 836.767090,234.763809 
	C840.347900,235.177750 842.014343,236.659210 842.294556,240.382370 
	C843.429932,255.468307 844.799377,270.536530 846.035767,285.615143 
	C846.195557,287.563599 846.686890,289.594971 845.121155,292.053711 
	C837.913635,290.379608 830.401001,290.131989 822.759155,291.141144 
	C808.898254,292.971558 796.247375,303.432159 793.327332,316.103302 
	C789.117188,334.372467 802.844299,350.159088 822.093811,348.756226 
	C822.547241,341.817993 820.904907,335.005798 820.434143,328.121643 
	C820.252808,325.469940 819.835938,322.830414 819.441895,320.197968 
	C818.462830,313.657227 818.443481,313.677979 824.781189,313.599365 
	C833.934631,313.485870 843.088501,313.383301 852.240417,313.192566 
	C855.656799,313.121399 857.727112,314.106995 857.242554,318.044464 
	C855.128601,335.222839 854.008179,352.480042 853.329834,369.766846 
	C853.229553,372.323425 851.759399,373.278900 849.618286,373.658813 
	C845.366516,374.413239 841.126221,375.456970 836.838379,375.746185 
	C813.210449,377.339966 789.800171,377.215973 768.340454,364.983002 
	C750.441345,354.779816 740.591858,339.193573 737.704712,318.961182 
	C735.397156,302.790222 736.608765,286.969330 743.695374,272.134766 
	C754.463379,249.593674 773.513184,238.488815 797.485474,234.675980 
	C798.964539,234.440735 800.445496,234.218185 802.387695,233.937912 
M810.215210,252.741531 
	C808.265869,253.670853 806.210815,254.431961 804.394226,255.572632 
	C802.184509,256.960114 800.145813,258.406464 800.407837,261.750214 
	C800.691772,265.373718 803.267883,265.339569 805.796143,265.537415 
	C805.292419,267.646637 803.337341,269.706573 806.756653,270.580750 
	C812.242859,271.983368 822.198181,268.022522 825.097107,262.988464 
	C826.536682,260.488617 827.190613,257.942627 824.824829,255.223083 
	C820.629883,250.400848 817.270813,249.549896 810.215210,252.741531 
z"/>
<path fill="#000000" opacity="1.000000" stroke="none" 
	d="
M178.093872,373.286377 
	C169.167374,373.303650 169.242599,373.302063 169.063354,364.779175 
	C168.388214,332.677063 167.370529,300.592377 165.027405,268.554840 
	C164.312302,258.777130 164.213303,248.951096 163.065933,239.197266 
	C162.579620,235.063004 165.452499,235.066071 168.199432,235.062332 
	C180.519470,235.045532 192.839584,235.083603 205.159668,235.093933 
	C210.320786,235.098251 215.486435,235.213242 220.641556,235.034317 
	C224.614990,234.896393 226.392471,236.230804 226.161682,240.507980 
	C225.175842,258.777649 224.396057,277.058441 223.544891,295.335358 
	C222.825577,310.780640 222.062729,326.224182 221.419510,341.672638 
	C221.168839,347.692749 222.810532,349.153870 228.805161,348.411530 
	C237.681000,347.312378 246.637115,347.108704 255.126709,345.382355 
	C256.856812,347.463531 255.971527,349.038239 255.537872,350.582123 
	C253.960724,356.196777 252.555542,361.861969 252.199371,367.691803 
	C251.949341,371.784363 250.334717,373.418518 246.005783,373.382721 
	C223.531464,373.196777 201.054840,373.289093 178.093872,373.286377 
z"/>
<path fill="#000000" opacity="1.000000" stroke="none" 
	d="
M273.555054,242.489655 
	C288.639343,231.860031 305.416290,230.706116 322.639526,232.093460 
	C328.257599,232.545990 333.806152,233.827255 339.398529,234.647369 
	C342.209991,235.059677 343.233643,236.587051 343.373352,239.383942 
	C344.170441,255.341644 345.063049,271.295013 346.028656,287.243500 
	C346.267426,291.187103 345.095428,292.879456 340.876038,291.864349 
	C338.648468,291.328461 336.224884,291.149353 333.945251,291.373230 
	C326.894867,292.065735 322.750092,298.973480 325.088379,305.650269 
	C327.201233,311.683380 330.704926,316.963257 333.922638,322.402069 
	C342.272064,336.514832 340.984192,351.246155 330.372467,362.883057 
	C329.140991,364.233490 327.921906,365.606384 326.451111,365.738892 
	C320.147278,356.765167 310.850494,360.453522 302.770172,358.734253 
	C304.843475,367.719238 307.924530,369.732819 318.776764,369.651642 
	C319.376526,371.381287 317.848816,371.556976 316.934174,371.925842 
	C305.522125,376.527649 293.793671,375.803802 282.013214,373.858582 
	C280.091187,373.541199 278.410767,372.601501 278.122925,370.507263 
	C277.032837,362.576630 274.676056,354.944122 272.831787,347.191010 
	C272.768646,346.925476 273.031311,346.582397 273.152252,346.247528 
	C274.372284,345.365448 275.673798,345.781891 276.965820,346.058868 
	C279.242218,346.546844 281.496307,347.256287 283.798218,347.484009 
	C289.086517,348.007233 294.545074,347.947449 297.508575,342.640564 
	C300.342743,337.565216 298.667694,332.393341 295.375000,328.155151 
	C289.305756,320.343109 281.007233,314.810699 273.827026,308.122650 
	C255.686310,291.225189 252.480072,259.836243 273.555054,242.489655 
z"/>
<path fill="#000000" opacity="1.000000" stroke="none" 
	d="
M516.776855,244.014679 
	C516.872620,235.043289 516.872559,235.072433 525.350281,235.082077 
	C541.493652,235.100449 557.638245,235.190063 573.779602,235.009155 
	C578.291138,234.958603 579.840881,236.217041 579.583252,241.042221 
	C578.235107,266.288940 577.206543,291.553253 576.156250,316.815155 
	C575.444153,333.944580 574.784119,351.077576 574.319946,368.214905 
	C574.212341,372.188385 572.635803,373.370178 568.873901,373.332550 
	C555.215393,373.195984 541.553711,373.193085 527.895386,373.343719 
	C524.066833,373.385895 522.762024,372.095947 522.569092,368.172211 
	C520.705322,330.269409 518.791138,292.369934 517.582397,254.438263 
	C517.476440,251.116394 517.054321,247.804611 516.776855,244.014679 
z"/>
<path fill="#000000" opacity="1.000000" stroke="none" 
	d="
M564.061523,182.638733 
	C575.099426,186.307114 583.388123,192.837051 589.512024,202.266342 
	C591.292175,205.007324 591.473206,206.855301 588.520142,208.851013 
	C560.153015,228.021683 536.413757,226.422302 509.313782,208.378036 
	C507.190033,206.963989 507.058228,205.334167 508.309357,203.295029 
	C516.392883,190.120071 527.988708,182.247116 543.445679,180.802505 
	C550.198547,180.171387 557.085266,180.158401 564.061523,182.638733 
M529.321045,204.943085 
	C528.126099,200.380219 530.663513,196.323181 531.391418,191.967728 
	C525.479553,192.170242 514.827698,199.484207 512.986694,204.334564 
	C512.588318,205.384018 512.474548,206.323944 513.454956,206.985245 
	C519.295654,210.924774 525.440491,214.175507 532.902161,216.103973 
	C531.841248,211.917862 529.762146,209.123993 529.321045,204.943085 
M571.746521,214.158386 
	C576.784546,211.803238 582.055359,209.836166 586.336182,205.914856 
	C583.148987,200.087952 578.318237,196.642014 573.216431,193.520111 
	C571.991455,192.770554 570.529724,191.740112 569.063477,192.772125 
	C567.548828,193.838150 568.192261,195.509445 568.570984,196.901093 
	C569.789124,201.377289 569.551208,205.725754 567.956360,210.080612 
	C567.323120,211.809738 565.612610,213.246658 566.027832,215.344147 
	C568.103760,216.023895 569.517151,214.892242 571.746521,214.158386 
M537.706665,192.230240 
	C535.781860,192.811417 535.021606,194.127426 535.614319,196.009735 
	C535.997192,197.225647 537.074219,197.769623 538.352356,197.683868 
	C539.822998,197.585175 540.930847,196.792725 541.190735,195.363190 
	C541.568115,193.288010 540.325623,192.363373 537.706665,192.230240 
z"/>
</svg>